<mxfile host="app.diagrams.net" modified="2024-05-14T12:58:56.743Z" agent="Mozilla/5.0 (Windows NT 10.0; Win64; x64) AppleWebKit/537.36 (KHTML, like Gecko) Chrome/119.0.0.0 Safari/537.36" etag="TGKJT5gaa59ayAx1i3q7" version="24.4.0" type="device">
  <diagram id="26pQuWGznM4Nc8gJCP6m" name="Page-1">
    <mxGraphModel dx="1049" dy="561" grid="1" gridSize="10" guides="1" tooltips="1" connect="1" arrows="1" fold="1" page="1" pageScale="1" pageWidth="827" pageHeight="1169" math="1" shadow="0">
      <root>
        <mxCell id="0" />
        <mxCell id="1" parent="0" />
        <mxCell id="oOmBWD5v_Np9IudHWEEX-61" value="" style="endArrow=classic;html=1;rounded=0;fontSize=14;entryX=0;entryY=0.5;entryDx=0;entryDy=0;" parent="1" source="oyV_1NqvOsf00bZIMhNe-6" target="oOmBWD5v_Np9IudHWEEX-53" edge="1">
          <mxGeometry width="50" height="50" relative="1" as="geometry">
            <mxPoint x="664" y="320" as="sourcePoint" />
            <mxPoint x="503" y="340" as="targetPoint" />
          </mxGeometry>
        </mxCell>
        <mxCell id="oyV_1NqvOsf00bZIMhNe-6" value="" style="rounded=0;whiteSpace=wrap;html=1;fillColor=none;strokeColor=#006666;rotation=-90;dashed=1;" parent="1" vertex="1">
          <mxGeometry x="558.24" y="257.35" width="115.63" height="123.46" as="geometry" />
        </mxCell>
        <mxCell id="oOmBWD5v_Np9IudHWEEX-62" value="&lt;font style=&quot;font-size: 12px&quot;&gt;$$\sum&amp;nbsp;$$&lt;/font&gt;" style="rounded=0;whiteSpace=wrap;html=1;dashed=1;strokeColor=none;fillColor=none;" parent="1" vertex="1">
          <mxGeometry x="509.88" y="303.5" width="30" height="30" as="geometry" />
        </mxCell>
        <mxCell id="oOmBWD5v_Np9IudHWEEX-3" value="&lt;font style=&quot;font-size: 18px&quot;&gt;$$x_1$$&lt;/font&gt;" style="rounded=0;whiteSpace=wrap;html=1;dashed=1;strokeColor=none;fillColor=none;" parent="1" vertex="1">
          <mxGeometry x="70" y="240" width="40" height="40" as="geometry" />
        </mxCell>
        <mxCell id="oOmBWD5v_Np9IudHWEEX-13" style="edgeStyle=orthogonalEdgeStyle;rounded=0;orthogonalLoop=1;jettySize=auto;html=1;entryX=0;entryY=0.5;entryDx=0;entryDy=0;fontSize=18;" parent="1" source="oOmBWD5v_Np9IudHWEEX-1" target="oOmBWD5v_Np9IudHWEEX-12" edge="1">
          <mxGeometry relative="1" as="geometry" />
        </mxCell>
        <mxCell id="N3w38ut-THMkIvF0rDEO-1" style="edgeStyle=orthogonalEdgeStyle;rounded=0;orthogonalLoop=1;jettySize=auto;html=1;entryX=0;entryY=0.5;entryDx=0;entryDy=0;" edge="1" parent="1" source="oOmBWD5v_Np9IudHWEEX-1" target="N3w38ut-THMkIvF0rDEO-2">
          <mxGeometry relative="1" as="geometry">
            <mxPoint x="320" y="150" as="targetPoint" />
            <Array as="points">
              <mxPoint x="130" y="215" />
            </Array>
          </mxGeometry>
        </mxCell>
        <mxCell id="oOmBWD5v_Np9IudHWEEX-1" value="&lt;font style=&quot;font-size: 10px&quot;&gt;$$0.52$$&lt;/font&gt;" style="rounded=0;whiteSpace=wrap;html=1;fillColor=#dae8fc;strokeColor=#6c8ebf;" parent="1" vertex="1">
          <mxGeometry x="110" y="240" width="40" height="40" as="geometry" />
        </mxCell>
        <mxCell id="oOmBWD5v_Np9IudHWEEX-4" value="&lt;font style=&quot;font-size: 18px&quot;&gt;$$x_2$$&lt;/font&gt;" style="rounded=0;whiteSpace=wrap;html=1;dashed=1;strokeColor=none;fillColor=none;" parent="1" vertex="1">
          <mxGeometry x="70" y="280" width="40" height="40" as="geometry" />
        </mxCell>
        <mxCell id="oOmBWD5v_Np9IudHWEEX-23" style="edgeStyle=orthogonalEdgeStyle;rounded=0;orthogonalLoop=1;jettySize=auto;html=1;entryX=0;entryY=0.5;entryDx=0;entryDy=0;fontSize=14;" parent="1" source="oOmBWD5v_Np9IudHWEEX-5" target="oOmBWD5v_Np9IudHWEEX-16" edge="1">
          <mxGeometry relative="1" as="geometry" />
        </mxCell>
        <mxCell id="oOmBWD5v_Np9IudHWEEX-5" value="&lt;font style=&quot;font-size: 10px&quot;&gt;$$0.43$$&lt;/font&gt;" style="rounded=0;whiteSpace=wrap;html=1;fillColor=#dae8fc;strokeColor=#6c8ebf;" parent="1" vertex="1">
          <mxGeometry x="110" y="280" width="40" height="40" as="geometry" />
        </mxCell>
        <mxCell id="oOmBWD5v_Np9IudHWEEX-6" value="&lt;font style=&quot;font-size: 18px&quot;&gt;$$x_3$$&lt;/font&gt;" style="rounded=0;whiteSpace=wrap;html=1;dashed=1;strokeColor=none;fillColor=none;" parent="1" vertex="1">
          <mxGeometry x="70" y="320" width="40" height="40" as="geometry" />
        </mxCell>
        <mxCell id="oOmBWD5v_Np9IudHWEEX-24" style="edgeStyle=orthogonalEdgeStyle;rounded=0;orthogonalLoop=1;jettySize=auto;html=1;entryX=0;entryY=0.5;entryDx=0;entryDy=0;fontSize=14;" parent="1" source="oOmBWD5v_Np9IudHWEEX-7" target="oOmBWD5v_Np9IudHWEEX-17" edge="1">
          <mxGeometry relative="1" as="geometry" />
        </mxCell>
        <mxCell id="oOmBWD5v_Np9IudHWEEX-7" value="&lt;font style=&quot;font-size: 10px&quot;&gt;$$0.71$$&lt;/font&gt;" style="rounded=0;whiteSpace=wrap;html=1;fillColor=#dae8fc;strokeColor=#6c8ebf;" parent="1" vertex="1">
          <mxGeometry x="110" y="320" width="40" height="40" as="geometry" />
        </mxCell>
        <mxCell id="oOmBWD5v_Np9IudHWEEX-8" value="&lt;font style=&quot;font-size: 18px&quot;&gt;$$x_4$$&lt;/font&gt;" style="rounded=0;whiteSpace=wrap;html=1;dashed=1;strokeColor=none;fillColor=none;" parent="1" vertex="1">
          <mxGeometry x="70" y="360" width="40" height="40" as="geometry" />
        </mxCell>
        <mxCell id="oOmBWD5v_Np9IudHWEEX-25" style="edgeStyle=orthogonalEdgeStyle;rounded=0;orthogonalLoop=1;jettySize=auto;html=1;entryX=0;entryY=0.5;entryDx=0;entryDy=0;fontSize=14;" parent="1" source="oOmBWD5v_Np9IudHWEEX-9" target="oOmBWD5v_Np9IudHWEEX-18" edge="1">
          <mxGeometry relative="1" as="geometry" />
        </mxCell>
        <mxCell id="oOmBWD5v_Np9IudHWEEX-9" value="&lt;font style=&quot;font-size: 10px&quot;&gt;$$0.18$$&lt;/font&gt;" style="rounded=0;whiteSpace=wrap;html=1;fillColor=#dae8fc;strokeColor=#6c8ebf;" parent="1" vertex="1">
          <mxGeometry x="110" y="360" width="40" height="40" as="geometry" />
        </mxCell>
        <mxCell id="oOmBWD5v_Np9IudHWEEX-10" value="&lt;span style=&quot;font-size: 10px&quot;&gt;$$&amp;nbsp;\vdots&amp;nbsp;$$&lt;/span&gt;" style="rounded=0;whiteSpace=wrap;html=1;dashed=1;strokeColor=none;fillColor=none;" parent="1" vertex="1">
          <mxGeometry x="70" y="400" width="40" height="40" as="geometry" />
        </mxCell>
        <mxCell id="oOmBWD5v_Np9IudHWEEX-11" value="&lt;font style=&quot;font-size: 10px&quot;&gt;$$&amp;nbsp;\vdots&amp;nbsp;$$&lt;/font&gt;" style="rounded=0;whiteSpace=wrap;html=1;fillColor=#dae8fc;strokeColor=#6c8ebf;" parent="1" vertex="1">
          <mxGeometry x="110" y="400" width="40" height="40" as="geometry" />
        </mxCell>
        <mxCell id="oOmBWD5v_Np9IudHWEEX-33" value="" style="endArrow=classic;html=1;rounded=0;fontSize=14;exitX=1;exitY=0.5;exitDx=0;exitDy=0;entryX=0;entryY=0.5;entryDx=0;entryDy=0;" parent="1" source="oOmBWD5v_Np9IudHWEEX-12" target="oOmBWD5v_Np9IudHWEEX-14" edge="1">
          <mxGeometry width="50" height="50" relative="1" as="geometry">
            <mxPoint x="300" y="380" as="sourcePoint" />
            <mxPoint x="350" y="330" as="targetPoint" />
          </mxGeometry>
        </mxCell>
        <mxCell id="oOmBWD5v_Np9IudHWEEX-35" value="" style="endArrow=classic;html=1;rounded=0;fontSize=14;exitX=1;exitY=0.5;exitDx=0;exitDy=0;entryX=0;entryY=0.5;entryDx=0;entryDy=0;" parent="1" source="oOmBWD5v_Np9IudHWEEX-16" target="oOmBWD5v_Np9IudHWEEX-14" edge="1">
          <mxGeometry width="50" height="50" relative="1" as="geometry">
            <mxPoint x="290" y="270" as="sourcePoint" />
            <mxPoint x="330" y="290" as="targetPoint" />
          </mxGeometry>
        </mxCell>
        <mxCell id="oOmBWD5v_Np9IudHWEEX-36" value="" style="endArrow=classic;html=1;rounded=0;fontSize=14;exitX=1;exitY=0.5;exitDx=0;exitDy=0;entryX=0;entryY=0.5;entryDx=0;entryDy=0;" parent="1" source="oOmBWD5v_Np9IudHWEEX-12" target="oOmBWD5v_Np9IudHWEEX-29" edge="1">
          <mxGeometry width="50" height="50" relative="1" as="geometry">
            <mxPoint x="290" y="270" as="sourcePoint" />
            <mxPoint x="320" y="320" as="targetPoint" />
          </mxGeometry>
        </mxCell>
        <mxCell id="oOmBWD5v_Np9IudHWEEX-40" value="" style="endArrow=classic;html=1;rounded=0;fontSize=14;entryX=0;entryY=0.5;entryDx=0;entryDy=0;exitX=1;exitY=0.5;exitDx=0;exitDy=0;" parent="1" source="oOmBWD5v_Np9IudHWEEX-12" target="oOmBWD5v_Np9IudHWEEX-26" edge="1">
          <mxGeometry width="50" height="50" relative="1" as="geometry">
            <mxPoint x="280" y="260" as="sourcePoint" />
            <mxPoint x="330" y="260" as="targetPoint" />
          </mxGeometry>
        </mxCell>
        <mxCell id="oOmBWD5v_Np9IudHWEEX-41" value="" style="endArrow=classic;html=1;rounded=0;fontSize=14;exitX=1;exitY=0.5;exitDx=0;exitDy=0;entryX=0;entryY=0.5;entryDx=0;entryDy=0;" parent="1" source="oOmBWD5v_Np9IudHWEEX-16" target="oOmBWD5v_Np9IudHWEEX-27" edge="1">
          <mxGeometry width="50" height="50" relative="1" as="geometry">
            <mxPoint x="300" y="280" as="sourcePoint" />
            <mxPoint x="340" y="270" as="targetPoint" />
          </mxGeometry>
        </mxCell>
        <mxCell id="oOmBWD5v_Np9IudHWEEX-42" value="" style="endArrow=classic;html=1;rounded=0;fontSize=14;exitX=1;exitY=0.5;exitDx=0;exitDy=0;entryX=0;entryY=0.5;entryDx=0;entryDy=0;" parent="1" source="oOmBWD5v_Np9IudHWEEX-16" target="oOmBWD5v_Np9IudHWEEX-30" edge="1">
          <mxGeometry width="50" height="50" relative="1" as="geometry">
            <mxPoint x="310" y="290" as="sourcePoint" />
            <mxPoint x="350" y="280" as="targetPoint" />
          </mxGeometry>
        </mxCell>
        <mxCell id="oOmBWD5v_Np9IudHWEEX-43" value="" style="endArrow=classic;html=1;rounded=0;fontSize=14;exitX=1;exitY=0.5;exitDx=0;exitDy=0;entryX=0;entryY=0.5;entryDx=0;entryDy=0;" parent="1" source="oOmBWD5v_Np9IudHWEEX-17" target="oOmBWD5v_Np9IudHWEEX-26" edge="1">
          <mxGeometry width="50" height="50" relative="1" as="geometry">
            <mxPoint x="320" y="300" as="sourcePoint" />
            <mxPoint x="360" y="290" as="targetPoint" />
          </mxGeometry>
        </mxCell>
        <mxCell id="oOmBWD5v_Np9IudHWEEX-44" value="" style="endArrow=classic;html=1;rounded=0;fontSize=14;exitX=1;exitY=0.5;exitDx=0;exitDy=0;entryX=0;entryY=0.5;entryDx=0;entryDy=0;" parent="1" source="oOmBWD5v_Np9IudHWEEX-17" target="oOmBWD5v_Np9IudHWEEX-27" edge="1">
          <mxGeometry width="50" height="50" relative="1" as="geometry">
            <mxPoint x="330" y="310" as="sourcePoint" />
            <mxPoint x="370" y="300" as="targetPoint" />
          </mxGeometry>
        </mxCell>
        <mxCell id="oOmBWD5v_Np9IudHWEEX-45" value="" style="endArrow=classic;html=1;rounded=0;fontSize=14;exitX=1;exitY=0.5;exitDx=0;exitDy=0;entryX=0;entryY=0.5;entryDx=0;entryDy=0;" parent="1" source="oOmBWD5v_Np9IudHWEEX-17" target="oOmBWD5v_Np9IudHWEEX-31" edge="1">
          <mxGeometry width="50" height="50" relative="1" as="geometry">
            <mxPoint x="340" y="320" as="sourcePoint" />
            <mxPoint x="380" y="310" as="targetPoint" />
          </mxGeometry>
        </mxCell>
        <mxCell id="oOmBWD5v_Np9IudHWEEX-46" value="" style="endArrow=classic;html=1;rounded=0;fontSize=14;exitX=1;exitY=0.5;exitDx=0;exitDy=0;entryX=0;entryY=0.5;entryDx=0;entryDy=0;" parent="1" source="oOmBWD5v_Np9IudHWEEX-18" target="oOmBWD5v_Np9IudHWEEX-31" edge="1">
          <mxGeometry width="50" height="50" relative="1" as="geometry">
            <mxPoint x="350" y="330" as="sourcePoint" />
            <mxPoint x="390" y="320" as="targetPoint" />
          </mxGeometry>
        </mxCell>
        <mxCell id="oOmBWD5v_Np9IudHWEEX-47" value="" style="endArrow=classic;html=1;rounded=0;fontSize=14;exitX=1;exitY=0.5;exitDx=0;exitDy=0;entryX=0;entryY=0.5;entryDx=0;entryDy=0;" parent="1" source="oOmBWD5v_Np9IudHWEEX-18" target="oOmBWD5v_Np9IudHWEEX-30" edge="1">
          <mxGeometry width="50" height="50" relative="1" as="geometry">
            <mxPoint x="360" y="340" as="sourcePoint" />
            <mxPoint x="400" y="330" as="targetPoint" />
          </mxGeometry>
        </mxCell>
        <mxCell id="oOmBWD5v_Np9IudHWEEX-48" value="" style="endArrow=classic;html=1;rounded=0;fontSize=14;exitX=1;exitY=0.5;exitDx=0;exitDy=0;entryX=0;entryY=0.5;entryDx=0;entryDy=0;" parent="1" source="oOmBWD5v_Np9IudHWEEX-18" target="oOmBWD5v_Np9IudHWEEX-29" edge="1">
          <mxGeometry width="50" height="50" relative="1" as="geometry">
            <mxPoint x="370" y="350" as="sourcePoint" />
            <mxPoint x="410" y="340" as="targetPoint" />
          </mxGeometry>
        </mxCell>
        <mxCell id="oOmBWD5v_Np9IudHWEEX-50" value="&lt;div style=&quot;direction: rtl;&quot;&gt;&lt;span style=&quot;font-family: &amp;quot;Times New Roman&amp;quot;; background-color: initial;&quot;&gt;&lt;b&gt;Self-Attention Layer&lt;/b&gt;&lt;/span&gt;&lt;/div&gt;" style="rounded=1;whiteSpace=wrap;html=1;fillColor=#f8cecc;strokeColor=#b85450;rotation=-90;" parent="1" vertex="1">
          <mxGeometry x="421.13" y="296.63" width="117.75" height="45" as="geometry" />
        </mxCell>
        <mxCell id="oOmBWD5v_Np9IudHWEEX-53" value="&lt;font face=&quot;Times New Roman&quot;&gt;&lt;b&gt;$$\hat{y}_{SANFM}&amp;nbsp;&lt;br&gt;$$&lt;/b&gt;&lt;/font&gt;" style="rounded=1;whiteSpace=wrap;html=1;fillColor=#d5e8d4;strokeColor=#82b366;" parent="1" vertex="1">
          <mxGeometry x="710" y="310" width="60" height="20" as="geometry" />
        </mxCell>
        <mxCell id="oOmBWD5v_Np9IudHWEEX-54" value="" style="endArrow=classic;html=1;rounded=0;fontSize=14;exitX=1;exitY=0.5;exitDx=0;exitDy=0;entryX=0.5;entryY=0;entryDx=0;entryDy=0;" parent="1" source="oOmBWD5v_Np9IudHWEEX-14" target="oOmBWD5v_Np9IudHWEEX-50" edge="1">
          <mxGeometry width="50" height="50" relative="1" as="geometry">
            <mxPoint x="290" y="270" as="sourcePoint" />
            <mxPoint x="330" y="260" as="targetPoint" />
          </mxGeometry>
        </mxCell>
        <mxCell id="oOmBWD5v_Np9IudHWEEX-55" value="" style="endArrow=classic;html=1;rounded=0;fontSize=14;exitX=1;exitY=0.5;exitDx=0;exitDy=0;entryX=0.5;entryY=0;entryDx=0;entryDy=0;" parent="1" source="oOmBWD5v_Np9IudHWEEX-26" target="oOmBWD5v_Np9IudHWEEX-50" edge="1">
          <mxGeometry width="50" height="50" relative="1" as="geometry">
            <mxPoint x="410" y="260" as="sourcePoint" />
            <mxPoint x="430" y="310" as="targetPoint" />
          </mxGeometry>
        </mxCell>
        <mxCell id="oOmBWD5v_Np9IudHWEEX-56" value="" style="endArrow=classic;html=1;rounded=0;fontSize=14;exitX=1;exitY=0.5;exitDx=0;exitDy=0;entryX=0.5;entryY=0;entryDx=0;entryDy=0;" parent="1" source="oOmBWD5v_Np9IudHWEEX-27" target="oOmBWD5v_Np9IudHWEEX-50" edge="1">
          <mxGeometry width="50" height="50" relative="1" as="geometry">
            <mxPoint x="420" y="270" as="sourcePoint" />
            <mxPoint x="440" y="320" as="targetPoint" />
          </mxGeometry>
        </mxCell>
        <mxCell id="oOmBWD5v_Np9IudHWEEX-57" value="" style="endArrow=classic;html=1;rounded=0;fontSize=14;exitX=1;exitY=0.5;exitDx=0;exitDy=0;entryX=0.5;entryY=0;entryDx=0;entryDy=0;" parent="1" source="oOmBWD5v_Np9IudHWEEX-29" target="oOmBWD5v_Np9IudHWEEX-50" edge="1">
          <mxGeometry width="50" height="50" relative="1" as="geometry">
            <mxPoint x="430" y="280" as="sourcePoint" />
            <mxPoint x="470" y="350" as="targetPoint" />
          </mxGeometry>
        </mxCell>
        <mxCell id="oOmBWD5v_Np9IudHWEEX-58" value="" style="endArrow=classic;html=1;rounded=0;fontSize=14;exitX=1;exitY=0.5;exitDx=0;exitDy=0;entryX=0.5;entryY=0;entryDx=0;entryDy=0;" parent="1" source="oOmBWD5v_Np9IudHWEEX-30" target="oOmBWD5v_Np9IudHWEEX-50" edge="1">
          <mxGeometry width="50" height="50" relative="1" as="geometry">
            <mxPoint x="440" y="290" as="sourcePoint" />
            <mxPoint x="480" y="360" as="targetPoint" />
          </mxGeometry>
        </mxCell>
        <mxCell id="oOmBWD5v_Np9IudHWEEX-59" value="" style="endArrow=classic;html=1;rounded=0;fontSize=14;exitX=1;exitY=0.5;exitDx=0;exitDy=0;entryX=0.5;entryY=0;entryDx=0;entryDy=0;" parent="1" source="oOmBWD5v_Np9IudHWEEX-31" target="oOmBWD5v_Np9IudHWEEX-50" edge="1">
          <mxGeometry width="50" height="50" relative="1" as="geometry">
            <mxPoint x="400" y="250" as="sourcePoint" />
            <mxPoint x="440" y="320" as="targetPoint" />
          </mxGeometry>
        </mxCell>
        <mxCell id="oOmBWD5v_Np9IudHWEEX-68" value="&lt;font style=&quot;font-size: 12px&quot; face=&quot;Times New Roman&quot;&gt;$$自注意力层$$&lt;/font&gt;" style="rounded=0;whiteSpace=wrap;html=1;dashed=1;strokeColor=none;fillColor=none;fontStyle=1" parent="1" vertex="1">
          <mxGeometry x="430" y="440" width="100" height="40" as="geometry" />
        </mxCell>
        <mxCell id="oOmBWD5v_Np9IudHWEEX-69" value="&lt;font style=&quot;font-size: 12px&quot; face=&quot;Times New Roman&quot;&gt;$$深度神经网络层$$&lt;/font&gt;" style="rounded=0;whiteSpace=wrap;html=1;dashed=1;strokeColor=none;fillColor=none;fontStyle=1" parent="1" vertex="1">
          <mxGeometry x="571.85" y="439" width="90" height="40" as="geometry" />
        </mxCell>
        <mxCell id="oOmBWD5v_Np9IudHWEEX-70" value="&lt;font style=&quot;font-size: 12px&quot; face=&quot;Times New Roman&quot;&gt;$$预测层$$&lt;/font&gt;" style="rounded=0;whiteSpace=wrap;html=1;dashed=1;strokeColor=none;fillColor=none;fontStyle=1" parent="1" vertex="1">
          <mxGeometry x="705" y="439" width="70" height="40" as="geometry" />
        </mxCell>
        <mxCell id="oOmBWD5v_Np9IudHWEEX-71" value="&lt;font style=&quot;font-size: 12px&quot; face=&quot;Times New Roman&quot;&gt;$$输入层$$&lt;/font&gt;" style="rounded=0;whiteSpace=wrap;html=1;dashed=1;strokeColor=none;fillColor=none;fontStyle=1" parent="1" vertex="1">
          <mxGeometry x="90" y="440" width="80" height="40" as="geometry" />
        </mxCell>
        <mxCell id="oOmBWD5v_Np9IudHWEEX-72" value="&lt;font style=&quot;font-size: 12px&quot; face=&quot;Times New Roman&quot;&gt;&lt;b&gt;$$交互层$$&lt;/b&gt;&lt;/font&gt;" style="rounded=0;whiteSpace=wrap;html=1;dashed=1;strokeColor=none;fillColor=none;fontStyle=0;fontColor=default;" parent="1" vertex="1">
          <mxGeometry x="310" y="439" width="100" height="40" as="geometry" />
        </mxCell>
        <mxCell id="oyV_1NqvOsf00bZIMhNe-2" value="&lt;font style=&quot;font-size: 12px&quot; face=&quot;Times New Roman&quot;&gt;$$嵌入层$$&lt;/font&gt;" style="rounded=0;whiteSpace=wrap;html=1;dashed=1;strokeColor=none;fillColor=none;fontStyle=1" parent="1" vertex="1">
          <mxGeometry x="180" y="439" width="100" height="40" as="geometry" />
        </mxCell>
        <mxCell id="oyV_1NqvOsf00bZIMhNe-9" value="" style="endArrow=classic;html=1;rounded=0;fontSize=14;entryX=0;entryY=0.5;entryDx=0;entryDy=0;" parent="1" source="oOmBWD5v_Np9IudHWEEX-52" target="oyV_1NqvOsf00bZIMhNe-11" edge="1">
          <mxGeometry width="50" height="50" relative="1" as="geometry">
            <mxPoint x="589" y="320" as="sourcePoint" />
            <mxPoint x="604" y="320" as="targetPoint" />
          </mxGeometry>
        </mxCell>
        <mxCell id="oyV_1NqvOsf00bZIMhNe-10" value="" style="endArrow=classic;html=1;rounded=0;fontSize=14;exitX=0.5;exitY=1;exitDx=0;exitDy=0;entryX=0.5;entryY=0;entryDx=0;entryDy=0;" parent="1" source="oOmBWD5v_Np9IudHWEEX-50" target="oyV_1NqvOsf00bZIMhNe-6" edge="1">
          <mxGeometry width="50" height="50" relative="1" as="geometry">
            <mxPoint x="585" y="330" as="sourcePoint" />
            <mxPoint x="600" y="330" as="targetPoint" />
          </mxGeometry>
        </mxCell>
        <mxCell id="oyV_1NqvOsf00bZIMhNe-11" value="$$\cdots$$&lt;p style=&quot;line-height: 120%;&quot;&gt;&lt;/p&gt;" style="rounded=0;whiteSpace=wrap;html=1;dashed=1;strokeColor=none;fillColor=none;" parent="1" vertex="1">
          <mxGeometry x="609" y="310" width="20" height="20.92" as="geometry" />
        </mxCell>
        <mxCell id="oyV_1NqvOsf00bZIMhNe-12" value="" style="endArrow=classic;html=1;rounded=0;fontSize=14;entryX=0.5;entryY=0;entryDx=0;entryDy=0;exitX=1;exitY=0.5;exitDx=0;exitDy=0;" parent="1" source="oyV_1NqvOsf00bZIMhNe-11" target="oyV_1NqvOsf00bZIMhNe-8" edge="1">
          <mxGeometry width="50" height="50" relative="1" as="geometry">
            <mxPoint x="599" y="330" as="sourcePoint" />
            <mxPoint x="619" y="330" as="targetPoint" />
          </mxGeometry>
        </mxCell>
        <mxCell id="oOmBWD5v_Np9IudHWEEX-52" value="&lt;font style=&quot;font-size: 12px&quot; face=&quot;Times New Roman&quot;&gt;&lt;b&gt;&lt;i&gt;Layer 1&lt;/i&gt;&lt;/b&gt;&lt;/font&gt;" style="rounded=1;whiteSpace=wrap;html=1;fillColor=#b0e3e6;strokeColor=#0e8088;rotation=-90;" parent="1" vertex="1">
          <mxGeometry x="520.63" y="309.38" width="100" height="21.25" as="geometry" />
        </mxCell>
        <mxCell id="oyV_1NqvOsf00bZIMhNe-8" value="&lt;font style=&quot;font-size: 12px&quot; face=&quot;Times New Roman&quot;&gt;&lt;b&gt;&lt;i&gt;Layer&amp;nbsp;L&lt;/i&gt;&lt;/b&gt;&lt;/font&gt;" style="rounded=1;whiteSpace=wrap;html=1;fillColor=#b0e3e6;strokeColor=#0e8088;rotation=-90;" parent="1" vertex="1">
          <mxGeometry x="611.13" y="309.38" width="100" height="21.25" as="geometry" />
        </mxCell>
        <mxCell id="oOmBWD5v_Np9IudHWEEX-14" value="&lt;font style=&quot;font-size: 14px&quot;&gt;$$v_{1} \circ v_{2}$$&lt;/font&gt;" style="rounded=0;whiteSpace=wrap;html=1;fillColor=#fff2cc;strokeColor=#d6b656;" parent="1" vertex="1">
          <mxGeometry x="320" y="240" width="80" height="20" as="geometry" />
        </mxCell>
        <mxCell id="oOmBWD5v_Np9IudHWEEX-26" value="&lt;span style=&quot;font-size: 14px&quot;&gt;$$v_{1} \circ v_{3}$$&lt;/span&gt;" style="rounded=0;whiteSpace=wrap;html=1;fillColor=#fff2cc;strokeColor=#d6b656;" parent="1" vertex="1">
          <mxGeometry x="320" y="268" width="80" height="20" as="geometry" />
        </mxCell>
        <mxCell id="oOmBWD5v_Np9IudHWEEX-27" value="&lt;span style=&quot;font-size: 14px&quot;&gt;$$v_{2} \circ v_{3}$$&lt;/span&gt;" style="rounded=0;whiteSpace=wrap;html=1;fillColor=#fff2cc;strokeColor=#d6b656;" parent="1" vertex="1">
          <mxGeometry x="320" y="297" width="80" height="20" as="geometry" />
        </mxCell>
        <mxCell id="oOmBWD5v_Np9IudHWEEX-29" value="&lt;font style=&quot;font-size: 14px&quot;&gt;$$v_{1} \circ v_{4}$$&lt;/font&gt;" style="rounded=0;whiteSpace=wrap;html=1;fillColor=#fff2cc;strokeColor=#d6b656;" parent="1" vertex="1">
          <mxGeometry x="320" y="325" width="80" height="20" as="geometry" />
        </mxCell>
        <mxCell id="oOmBWD5v_Np9IudHWEEX-30" value="&lt;font style=&quot;font-size: 14px&quot;&gt;$$v_{2} \circ v_{4}$$&lt;/font&gt;" style="rounded=0;whiteSpace=wrap;html=1;fillColor=#fff2cc;strokeColor=#d6b656;" parent="1" vertex="1">
          <mxGeometry x="320" y="352" width="80" height="20" as="geometry" />
        </mxCell>
        <mxCell id="oOmBWD5v_Np9IudHWEEX-31" value="&lt;font style=&quot;font-size: 14px&quot;&gt;$$v_{3} \circ v_{4}$$&lt;/font&gt;" style="rounded=0;whiteSpace=wrap;html=1;fillColor=#fff2cc;strokeColor=#d6b656;" parent="1" vertex="1">
          <mxGeometry x="320" y="380" width="80" height="20" as="geometry" />
        </mxCell>
        <mxCell id="oOmBWD5v_Np9IudHWEEX-12" value="&lt;font style=&quot;font-size: 14px&quot;&gt;$$v_1$$&lt;/font&gt;" style="rounded=0;whiteSpace=wrap;html=1;fillColor=#e1d5e7;strokeColor=#9673a6;" parent="1" vertex="1">
          <mxGeometry x="190" y="250" width="80" height="20" as="geometry" />
        </mxCell>
        <mxCell id="oOmBWD5v_Np9IudHWEEX-16" value="&lt;font style=&quot;font-size: 14px&quot;&gt;$$v_2$$&lt;/font&gt;" style="rounded=0;whiteSpace=wrap;html=1;fillColor=#e1d5e7;strokeColor=#9673a6;" parent="1" vertex="1">
          <mxGeometry x="190" y="290" width="80" height="20" as="geometry" />
        </mxCell>
        <mxCell id="oOmBWD5v_Np9IudHWEEX-17" value="&lt;font style=&quot;font-size: 14px&quot;&gt;$$v_3$$&lt;/font&gt;" style="rounded=0;whiteSpace=wrap;html=1;fillColor=#e1d5e7;strokeColor=#9673a6;" parent="1" vertex="1">
          <mxGeometry x="190" y="330" width="80" height="20" as="geometry" />
        </mxCell>
        <mxCell id="oOmBWD5v_Np9IudHWEEX-18" value="&lt;font style=&quot;font-size: 14px&quot;&gt;$$v_4$$&lt;/font&gt;" style="rounded=0;whiteSpace=wrap;html=1;fillColor=#e1d5e7;strokeColor=#9673a6;" parent="1" vertex="1">
          <mxGeometry x="190" y="370" width="80" height="20" as="geometry" />
        </mxCell>
        <mxCell id="N3w38ut-THMkIvF0rDEO-3" style="edgeStyle=orthogonalEdgeStyle;rounded=0;orthogonalLoop=1;jettySize=auto;html=1;" edge="1" parent="1" source="N3w38ut-THMkIvF0rDEO-2" target="oOmBWD5v_Np9IudHWEEX-53">
          <mxGeometry relative="1" as="geometry" />
        </mxCell>
        <mxCell id="N3w38ut-THMkIvF0rDEO-2" value="&lt;font face=&quot;Times New Roman&quot;&gt;&lt;b&gt;FM&amp;nbsp;Part&lt;/b&gt;&lt;/font&gt;" style="rounded=1;whiteSpace=wrap;html=1;fillColor=#f5f5f5;strokeColor=#666666;fontColor=#333333;" vertex="1" parent="1">
          <mxGeometry x="449.51" y="200" width="61" height="30" as="geometry" />
        </mxCell>
      </root>
    </mxGraphModel>
  </diagram>
</mxfile>
